<?xml version="1.0" encoding="iso-8859-1"?>
<!-- Generator: Adobe Illustrator 19.0.0, SVG Export Plug-In . SVG Version: 6.00 Build 0)  -->
<svg version="1.1" id="Capa_1" xmlns="http://www.w3.org/2000/svg" xmlns:xlink="http://www.w3.org/1999/xlink" x="0px" y="0px"
	 viewBox="0 0 472.294 472.294" style="enable-background:new 0 0 472.294 472.294;" xml:space="preserve">
<path style="fill:#D4E1F4;" d="M321.829,452.963L321.829,452.963H59.037C26.122,452.963,0,426.318,0,393.926v-38.139h69.486h196.963
	v38.139C266.449,425.796,291.004,450.873,321.829,452.963z"/>
<path style="fill:#00BBD3;" d="M472.294,63.216v70.008h-87.771V63.216c0-24.555,19.853-43.886,43.886-43.886
	c12.016,0,22.988,4.702,31.347,13.061C467.592,40.229,472.294,51.2,472.294,63.216z"/>
<path style="fill:#4DCFE0;" d="M113.371,19.331h315.037c-24.033,0-43.886,19.331-43.886,43.886v70.008v260.702
	c0,16.196-6.269,30.825-17.241,41.796c-10.449,10.449-25.6,17.241-41.796,17.241c-1.045,0-2.612,0-3.657,0
	c-30.824-2.09-55.38-27.167-55.38-59.037v-38.139H69.486v-0.522l2.09-294.661C71.576,37.616,90.384,19.331,113.371,19.331z"/>
<g>
	<path style="fill:#00BBD3;" d="M136.359,122.253h80.98c8.882,0,15.673-6.792,15.673-15.673s-6.792-15.673-15.673-15.673h-80.98
		c-8.882,0-15.673,6.792-15.673,15.673S127.478,122.253,136.359,122.253z"/>
	<path style="fill:#00BBD3;" d="M136.359,184.947h175.02c8.882,0,15.673-6.792,15.673-15.673c0-8.882-6.792-15.673-15.673-15.673
		h-175.02c-8.882,0-15.673,6.792-15.673,15.673C120.686,178.155,127.478,184.947,136.359,184.947z"/>
	<path style="fill:#00BBD3;" d="M311.38,216.294h-175.02c-8.882,0-15.673,6.792-15.673,15.673c0,8.882,6.792,15.673,15.673,15.673
		h175.02c8.882,0,15.673-6.792,15.673-15.673C327.053,223.086,320.261,216.294,311.38,216.294z"/>
	<path style="fill:#00BBD3;" d="M311.38,278.988h-175.02c-8.882,0-15.673,6.792-15.673,15.673c0,8.882,6.792,15.673,15.673,15.673
		h175.02c8.882,0,15.673-6.792,15.673-15.673C327.053,285.78,320.261,278.988,311.38,278.988z"/>
</g>
<g>
</g>
<g>
</g>
<g>
</g>
<g>
</g>
<g>
</g>
<g>
</g>
<g>
</g>
<g>
</g>
<g>
</g>
<g>
</g>
<g>
</g>
<g>
</g>
<g>
</g>
<g>
</g>
<g>
</g>
</svg>
